<svg height="512pt" viewBox="-15 0 512 512" width="512pt" xmlns="http://www.w3.org/2000/svg"><path d="m241 191v66.101562l-90 12.898438-120-13h-31v-66h31l90-12.898438 30 3.296876zm0 0" fill="#ffda2d"/><path d="m271 319.898438v66.101562l-120 11.699219-120-11.699219v-66.101562l120-11.5zm0 0" fill="#ffda2d"/><path d="m241 257.101562-90 12.898438v-88.601562l90 9.601562zm0 0" fill="#fdbf00"/><path d="m271 319.898438v66.101562l-120 11.699219v-89.300781zm0 0" fill="#fdbf00"/><path d="m301 64.5v62.5h-30l-120 12-90-12v-62.5l90-13.5 120 13.5zm0 0" fill="#ffda2d"/><g fill="#fdbf00"><path d="m301 64.5v62.5h-30l-120 12v-88l120 13.5zm0 0"/><path d="m31 386h240v64h-240zm0 0"/><path d="m301 257.101562-30 62.796876h-240v-62.898438zm0 0"/><path d="m31 127h240v64h-240zm0 0"/><path d="m31 0h240v64.5h-240zm0 0"/></g><path d="m151 0h120v64.5h-120zm0 0" fill="#ff9100"/><path d="m151 127h120v64h-120zm0 0" fill="#ff9100"/><path d="m151 257.101562h150l-30 62.796876h-120zm0 0" fill="#ff9100"/><path d="m151 386h120v64h-120zm0 0" fill="#ff9100"/><path d="m346 242c-74.398438 0-135 60.597656-135 135 0 74.398438 60.601562 135 135 135s135-60.601562 135-135c0-74.402344-60.601562-135-135-135zm0 0" fill="#ffda2d"/><path d="m481 377c0 74.398438-60.601562 135-135 135v-270c74.398438 0 135 60.597656 135 135zm0 0" fill="#fdbf00"/><path d="m391 407c0 19.5-12.597656 36-30 42.300781v46.796875c-4.800781.601563-9.902344.902344-15 .902344s-10.199219-.300781-15-.902344v-46.796875c-17.402344-6.300781-30-22.800781-30-42.300781h30c0 8.398438 6.597656 15 15 15s15-6.601562 15-15c0-8.402344-6.597656-15-15-15-24.902344 0-45-20.101562-45-45 0-19.5 12.597656-36 30-42.300781v-46.800781c4.800781-.597657 9.902344-.898438 15-.898438s10.199219.300781 15 .898438v46.800781c17.402344 6.300781 30 22.800781 30 42.300781h-30c0-8.402344-6.597656-15-15-15s-15 6.597656-15 15c0 8.398438 6.597656 15 15 15 24.902344 0 45 20.097656 45 45zm0 0" fill="#fdbf00"/><path d="m391 407c0 19.5-12.597656 36-30 42.300781v46.796875c-4.800781.601563-9.902344.902344-15 .902344v-75c8.402344 0 15-6.601562 15-15 0-8.402344-6.597656-15-15-15v-30c24.902344 0 45 20.097656 45 45zm0 0" fill="#ff9100"/><path d="m346 332v-75c5.097656 0 10.199219.300781 15 .898438v46.800781c17.402344 6.300781 30 22.800781 30 42.300781h-30c0-8.402344-6.597656-15-15-15zm0 0" fill="#ff9100"/></svg>