<?xml version="1.0" encoding="iso-8859-1"?>
<!-- Generator: Adobe Illustrator 19.0.0, SVG Export Plug-In . SVG Version: 6.00 Build 0)  -->
<svg version="1.1" id="Layer_1" xmlns="http://www.w3.org/2000/svg" xmlns:xlink="http://www.w3.org/1999/xlink" x="0px" y="0px"
	 viewBox="0 0 512 512" style="enable-background:new 0 0 512 512;" xml:space="preserve">
<path style="fill:#EF4056;" d="M411.151,201.697h-23.273h-46.545H256h-85.333h-46.545h-23.273c-12.853,0-23.273,10.42-23.273,23.273
	v263.758c0,12.853,10.42,23.273,23.273,23.273H256h155.152c12.853,0,23.273-10.42,23.273-23.273V224.97
	C434.424,212.117,424.004,201.697,411.151,201.697z"/>
<path style="fill:#C3C3C7;" d="M170.667,131.877c0-47.051,38.281-85.332,85.333-85.332s85.333,38.281,85.333,85.332v69.82h46.545
	v-69.82C387.879,59.161,328.718,0,256,0S124.121,59.161,124.121,131.877v69.82h46.545V131.877z"/>
<path style="fill:#B6F032;" d="M321.91,307.423c-9.087-9.089-23.824-9.089-32.912,0L256,340.421l-16.485,16.485l-16.514-16.514
	c-9.087-9.089-23.824-9.089-32.912,0c-9.089,9.087-9.089,23.823,0,32.912l32.97,32.97c4.544,4.544,10.501,6.817,16.455,6.817
	s11.913-2.271,16.455-6.817l0.029-0.028l65.91-65.911C331,331.247,331,316.511,321.91,307.423z"/>
<path style="fill:#AB0522;" d="M100.848,512H256V406.246l-0.029,0.029c-4.544,4.544-10.501,6.817-16.455,6.817
	c-5.955,0-11.913-2.271-16.455-6.817l-32.97-32.97c-9.089-9.087-9.089-23.823,0-32.912c9.087-9.089,23.824-9.089,32.912,0
	l16.514,16.513L256,340.421V201.697h-85.333h-46.545h-23.273c-12.853,0-23.273,10.42-23.273,23.273v263.758
	C77.576,501.58,87.996,512,100.848,512z"/>
<path style="fill:#A9A8AE;" d="M124.121,131.879v69.818h46.545v-69.818c0-47.053,38.281-85.333,85.333-85.333V0
	C183.282,0,124.121,59.161,124.121,131.879z"/>
<g>
</g>
<g>
</g>
<g>
</g>
<g>
</g>
<g>
</g>
<g>
</g>
<g>
</g>
<g>
</g>
<g>
</g>
<g>
</g>
<g>
</g>
<g>
</g>
<g>
</g>
<g>
</g>
<g>
</g>
</svg>
